<svg width="800" height="800" viewBox="0 0 800 800" fill="none" xmlns="http://www.w3.org/2000/svg">
  <rect width="800" height="800" fill="#E5E7EB"/>
  <path d="M400 250C366.863 250 340 276.863 340 310C340 343.137 366.863 370 400 370C433.137 370 460 343.137 460 310C460 276.863 433.137 250 400 250ZM400 350C377.909 350 360 332.091 360 310C360 287.909 377.909 270 400 270C422.091 270 440 287.909 440 310C440 332.091 422.091 350 400 350Z" fill="#9CA3AF"/>
  <path d="M570 290H530V270H570V290ZM270 290H230V270H270V290Z" fill="#9CA3AF"/>
  <path d="M400 460C339.249 460 290 410.751 290 350H270C270 421.797 328.203 480 400 480V460ZM510 350C510 410.751 460.751 460 400 460V480C471.797 480 530 421.797 530 350H510Z" fill="#9CA3AF"/>
  <rect x="150" y="150" width="500" height="500" stroke="#9CA3AF" stroke-width="20"/>
</svg> 